<mxfile host="Electron" modified="2024-12-18T13:02:09.661Z" agent="Mozilla/5.0 (X11; Linux x86_64) AppleWebKit/537.36 (KHTML, like Gecko) draw.io/24.4.8 Chrome/124.0.6367.207 Electron/30.0.6 Safari/537.36" etag="7ktL0xKzAR2sDsQyBUnM" version="24.4.8" type="device">
  <diagram name="Page-1" id="16e2658f-23c8-b752-8be9-c03fbebb8bbe">
    <mxGraphModel dx="500" dy="1195" grid="1" gridSize="10" guides="1" tooltips="1" connect="1" arrows="1" fold="1" page="1" pageScale="1" pageWidth="1169" pageHeight="827" background="none" math="0" shadow="0">
      <root>
        <mxCell id="0" />
        <mxCell id="1" parent="0" />
        <mxCell id="laAMD-W9918imf4lk5Sr-12" value="&lt;font color=&quot;#999999&quot;&gt;10 MHz&lt;/font&gt;" style="rounded=1;whiteSpace=wrap;html=1;glass=0;strokeColor=#999999;" parent="1" vertex="1">
          <mxGeometry x="249" y="75" width="50" height="20" as="geometry" />
        </mxCell>
        <mxCell id="btig7-3qisSnMjI_CleR-5" value="" style="rounded=1;whiteSpace=wrap;html=1;strokeWidth=2;fillColor=#f5f5f5;shadow=1;fontColor=#333333;strokeColor=#666666;dashed=1;opacity=20;" parent="1" vertex="1">
          <mxGeometry x="310" y="210" width="97" height="100" as="geometry" />
        </mxCell>
        <mxCell id="btig7-3qisSnMjI_CleR-197" value="" style="group;shadow=0;" parent="1" vertex="1" connectable="0">
          <mxGeometry x="250" y="142" width="30" height="40" as="geometry" />
        </mxCell>
        <mxCell id="btig7-3qisSnMjI_CleR-194" value="" style="shape=cylinder3;whiteSpace=wrap;html=1;boundedLbl=1;backgroundOutline=1;size=9.33333899758074;direction=north;shadow=0;fillColor=#CCE5FF;" parent="btig7-3qisSnMjI_CleR-197" vertex="1">
          <mxGeometry width="30" height="40" as="geometry" />
        </mxCell>
        <mxCell id="btig7-3qisSnMjI_CleR-196" value="" style="ellipse;whiteSpace=wrap;html=1;fillColor=#CCE5FF;" parent="btig7-3qisSnMjI_CleR-197" vertex="1">
          <mxGeometry x="3" y="6.666666666666668" width="12" height="26.66666666666667" as="geometry" />
        </mxCell>
        <mxCell id="btig7-3qisSnMjI_CleR-2" value="&lt;div style=&quot;&quot;&gt;&lt;br&gt;&lt;/div&gt;" style="rounded=1;whiteSpace=wrap;html=1;align=center;strokeWidth=2;fillColor=#dae8fc;glass=0;shadow=1;strokeColor=#6c8ebf;" parent="1" vertex="1">
          <mxGeometry x="480" y="150" width="130" height="160" as="geometry" />
        </mxCell>
        <mxCell id="btig7-3qisSnMjI_CleR-1" value="" style="rounded=1;whiteSpace=wrap;html=1;strokeWidth=2;fillColor=#d5e8d4;shadow=1;strokeColor=#82b366;" parent="1" vertex="1">
          <mxGeometry x="130" y="190" width="111.75" height="130" as="geometry" />
        </mxCell>
        <mxCell id="btig7-3qisSnMjI_CleR-3" value="" style="rounded=1;whiteSpace=wrap;html=1;strokeWidth=2;fillColor=#d5e8d4;glass=0;shadow=1;strokeColor=#82b366;" parent="1" vertex="1">
          <mxGeometry x="640" y="150" width="110" height="140" as="geometry" />
        </mxCell>
        <mxCell id="btig7-3qisSnMjI_CleR-4" value="&lt;h3&gt;&lt;br&gt;&lt;/h3&gt;" style="rounded=1;whiteSpace=wrap;html=1;strokeWidth=2;fillColor=#ffe6cc;shadow=1;strokeColor=#d79b00;" parent="1" vertex="1">
          <mxGeometry x="340" y="20" width="110" height="120" as="geometry" />
        </mxCell>
        <mxCell id="btig7-3qisSnMjI_CleR-75" style="edgeStyle=orthogonalEdgeStyle;rounded=0;orthogonalLoop=1;jettySize=auto;html=1;entryX=0.5;entryY=1;entryDx=0;entryDy=0;endArrow=none;endFill=0;exitX=0.5;exitY=1;exitDx=0;exitDy=0;" parent="1" source="laAMD-W9918imf4lk5Sr-1" target="btig7-3qisSnMjI_CleR-20" edge="1">
          <mxGeometry relative="1" as="geometry">
            <Array as="points">
              <mxPoint x="390" y="330" />
              <mxPoint x="595" y="330" />
            </Array>
            <mxPoint x="390" y="309" as="sourcePoint" />
          </mxGeometry>
        </mxCell>
        <mxCell id="btig7-3qisSnMjI_CleR-8" value="" style="pointerEvents=1;verticalLabelPosition=bottom;shadow=0;dashed=0;align=center;html=1;verticalAlign=top;shape=mxgraph.electrical.signal_sources.source;aspect=fixed;points=[[0.5,0,0],[1,0.5,0],[0.5,1,0],[0,0.5,0]];elSignalType=ac;" parent="1" vertex="1">
          <mxGeometry x="350" y="31" width="20" height="20" as="geometry" />
        </mxCell>
        <mxCell id="btig7-3qisSnMjI_CleR-11" value="" style="pointerEvents=1;verticalLabelPosition=bottom;shadow=0;dashed=0;align=center;html=1;verticalAlign=top;shape=mxgraph.electrical.signal_sources.protective_earth;" parent="1" vertex="1">
          <mxGeometry x="377.5" y="330" width="25" height="20" as="geometry" />
        </mxCell>
        <mxCell id="btig7-3qisSnMjI_CleR-15" value="" style="verticalLabelPosition=bottom;shadow=0;dashed=0;align=center;html=1;verticalAlign=top;strokeWidth=1;shape=ellipse;" parent="1" vertex="1">
          <mxGeometry x="590" y="210" width="10" height="10" as="geometry" />
        </mxCell>
        <mxCell id="btig7-3qisSnMjI_CleR-16" value="" style="verticalLabelPosition=bottom;shadow=0;dashed=0;align=center;html=1;verticalAlign=top;strokeWidth=1;shape=ellipse;" parent="1" vertex="1">
          <mxGeometry x="590" y="230" width="10" height="10" as="geometry" />
        </mxCell>
        <mxCell id="btig7-3qisSnMjI_CleR-18" value="Channel in" style="text;html=1;align=right;verticalAlign=middle;resizable=0;points=[];autosize=1;strokeColor=none;fillColor=none;" parent="1" vertex="1">
          <mxGeometry x="126" y="236" width="80" height="30" as="geometry" />
        </mxCell>
        <mxCell id="btig7-3qisSnMjI_CleR-19" value="" style="verticalLabelPosition=bottom;shadow=0;dashed=0;align=center;html=1;verticalAlign=top;strokeWidth=1;shape=ellipse;" parent="1" vertex="1">
          <mxGeometry x="590" y="268" width="10" height="10" as="geometry" />
        </mxCell>
        <mxCell id="btig7-3qisSnMjI_CleR-20" value="" style="verticalLabelPosition=bottom;shadow=0;dashed=0;align=center;html=1;verticalAlign=top;strokeWidth=1;shape=ellipse;" parent="1" vertex="1">
          <mxGeometry x="590" y="288" width="10" height="10" as="geometry" />
        </mxCell>
        <mxCell id="btig7-3qisSnMjI_CleR-21" value="Ground" style="text;html=1;align=right;verticalAlign=middle;resizable=0;points=[];autosize=1;strokeColor=none;fillColor=none;" parent="1" vertex="1">
          <mxGeometry x="525" y="258" width="60" height="30" as="geometry" />
        </mxCell>
        <mxCell id="btig7-3qisSnMjI_CleR-22" value="&lt;div style=&quot;&quot;&gt;&lt;span style=&quot;background-color: initial;&quot;&gt;Guard&lt;/span&gt;&lt;/div&gt;" style="text;html=1;align=right;verticalAlign=middle;resizable=0;points=[];autosize=1;strokeColor=none;fillColor=none;" parent="1" vertex="1">
          <mxGeometry x="525" y="278" width="60" height="30" as="geometry" />
        </mxCell>
        <mxCell id="btig7-3qisSnMjI_CleR-23" value="&lt;h4 style=&quot;text-align: center;&quot;&gt;&lt;span style=&quot;background-color: initial;&quot;&gt;AC-DC transfer&lt;br&gt;&lt;/span&gt;&lt;span style=&quot;background-color: initial;&quot;&gt;standard&lt;/span&gt;&lt;/h4&gt;" style="text;html=1;align=right;verticalAlign=middle;resizable=0;points=[];autosize=1;strokeColor=none;fillColor=none;" parent="1" vertex="1">
          <mxGeometry x="495" y="145" width="110" height="70" as="geometry" />
        </mxCell>
        <mxCell id="btig7-3qisSnMjI_CleR-24" value="DC&amp;nbsp;&lt;span style=&quot;background-color: initial;&quot;&gt;out Lo&lt;/span&gt;" style="text;html=1;align=right;verticalAlign=middle;resizable=0;points=[];autosize=1;strokeColor=none;fillColor=none;" parent="1" vertex="1">
          <mxGeometry x="505" y="220" width="80" height="30" as="geometry" />
        </mxCell>
        <mxCell id="btig7-3qisSnMjI_CleR-28" value="DC&amp;nbsp;&lt;span style=&quot;background-color: initial;&quot;&gt;in Hi&lt;/span&gt;" style="text;html=1;align=left;verticalAlign=middle;resizable=0;points=[];autosize=1;strokeColor=none;fillColor=none;" parent="1" vertex="1">
          <mxGeometry x="665" y="200" width="70" height="30" as="geometry" />
        </mxCell>
        <mxCell id="btig7-3qisSnMjI_CleR-32" value="&lt;div style=&quot;&quot;&gt;&lt;span style=&quot;background-color: initial;&quot;&gt;Guard to Lo&lt;/span&gt;&lt;/div&gt;" style="text;html=1;align=left;verticalAlign=middle;resizable=0;points=[];autosize=1;strokeColor=none;fillColor=none;" parent="1" vertex="1">
          <mxGeometry x="665" y="250" width="90" height="30" as="geometry" />
        </mxCell>
        <mxCell id="btig7-3qisSnMjI_CleR-33" value="DC&amp;nbsp;&lt;span style=&quot;background-color: initial;&quot;&gt;in Lo&lt;/span&gt;" style="text;html=1;align=left;verticalAlign=middle;resizable=0;points=[];autosize=1;strokeColor=none;fillColor=none;" parent="1" vertex="1">
          <mxGeometry x="665" y="220" width="70" height="30" as="geometry" />
        </mxCell>
        <mxCell id="btig7-3qisSnMjI_CleR-34" value="" style="verticalLabelPosition=bottom;shadow=0;dashed=0;align=center;html=1;verticalAlign=top;strokeWidth=1;shape=ellipse;" parent="1" vertex="1">
          <mxGeometry x="650" y="210" width="10" height="10" as="geometry" />
        </mxCell>
        <mxCell id="btig7-3qisSnMjI_CleR-35" value="" style="verticalLabelPosition=bottom;shadow=0;dashed=0;align=center;html=1;verticalAlign=top;strokeWidth=1;shape=ellipse;" parent="1" vertex="1">
          <mxGeometry x="650" y="230" width="10" height="10" as="geometry" />
        </mxCell>
        <mxCell id="btig7-3qisSnMjI_CleR-38" value="&lt;h4 style=&quot;text-align: center;&quot;&gt;voltmeter&lt;/h4&gt;" style="text;html=1;align=right;verticalAlign=middle;resizable=0;points=[];autosize=1;strokeColor=none;fillColor=none;" parent="1" vertex="1">
          <mxGeometry x="650" y="140" width="80" height="60" as="geometry" />
        </mxCell>
        <mxCell id="btig7-3qisSnMjI_CleR-39" value="" style="endArrow=none;html=1;rounded=0;exitX=0;exitY=0.5;exitDx=0;exitDy=0;entryX=1;entryY=0.5;entryDx=0;entryDy=0;" parent="1" source="btig7-3qisSnMjI_CleR-34" target="btig7-3qisSnMjI_CleR-15" edge="1">
          <mxGeometry width="50" height="50" relative="1" as="geometry">
            <mxPoint x="450" y="430" as="sourcePoint" />
            <mxPoint x="500" y="380" as="targetPoint" />
          </mxGeometry>
        </mxCell>
        <mxCell id="btig7-3qisSnMjI_CleR-40" value="" style="endArrow=none;html=1;rounded=0;exitX=0;exitY=0.5;exitDx=0;exitDy=0;entryX=1;entryY=0.5;entryDx=0;entryDy=0;" parent="1" source="btig7-3qisSnMjI_CleR-35" target="btig7-3qisSnMjI_CleR-16" edge="1">
          <mxGeometry width="50" height="50" relative="1" as="geometry">
            <mxPoint x="700" y="359.81" as="sourcePoint" />
            <mxPoint x="610" y="359.81" as="targetPoint" />
          </mxGeometry>
        </mxCell>
        <mxCell id="btig7-3qisSnMjI_CleR-41" value="" style="endArrow=none;html=1;rounded=0;exitX=1;exitY=0.5;exitDx=0;exitDy=0;entryX=1;entryY=0.5;entryDx=0;entryDy=0;" parent="1" source="btig7-3qisSnMjI_CleR-19" target="btig7-3qisSnMjI_CleR-20" edge="1">
          <mxGeometry width="50" height="50" relative="1" as="geometry">
            <mxPoint x="590" y="268" as="sourcePoint" />
            <mxPoint x="620" y="273" as="targetPoint" />
            <Array as="points">
              <mxPoint x="620" y="273" />
              <mxPoint x="620" y="293" />
            </Array>
          </mxGeometry>
        </mxCell>
        <mxCell id="btig7-3qisSnMjI_CleR-65" value="Clock in" style="text;html=1;align=right;verticalAlign=middle;resizable=0;points=[];autosize=1;strokeColor=none;fillColor=none;" parent="1" vertex="1">
          <mxGeometry x="135" y="195" width="70" height="30" as="geometry" />
        </mxCell>
        <mxCell id="btig7-3qisSnMjI_CleR-68" value="Clock in/out" style="text;html=1;align=left;verticalAlign=middle;resizable=0;points=[];autosize=1;strokeColor=none;fillColor=none;" parent="1" vertex="1">
          <mxGeometry x="374" y="70" width="90" height="30" as="geometry" />
        </mxCell>
        <mxCell id="btig7-3qisSnMjI_CleR-72" value="&lt;h3 style=&quot;text-align: center;&quot;&gt;digitizer&lt;br&gt;NI 5922&lt;/h3&gt;" style="text;html=1;align=right;verticalAlign=middle;resizable=0;points=[];autosize=1;strokeColor=none;fillColor=none;" parent="1" vertex="1">
          <mxGeometry x="140" y="250" width="80" height="80" as="geometry" />
        </mxCell>
        <mxCell id="btig7-3qisSnMjI_CleR-73" value="&lt;h4 style=&quot;text-align: center;&quot;&gt;AC source&lt;/h4&gt;" style="text;html=1;align=right;verticalAlign=middle;resizable=0;points=[];autosize=1;strokeColor=none;fillColor=none;" parent="1" vertex="1">
          <mxGeometry x="356" y="10" width="80" height="60" as="geometry" />
        </mxCell>
        <mxCell id="btig7-3qisSnMjI_CleR-101" value="&lt;h4 style=&quot;text-align: center;&quot;&gt;T-connector&lt;/h4&gt;" style="text;html=1;align=right;verticalAlign=middle;resizable=0;points=[];autosize=1;strokeColor=none;fillColor=none;fontColor=#808080;" parent="1" vertex="1">
          <mxGeometry x="295" y="258" width="90" height="60" as="geometry" />
        </mxCell>
        <mxCell id="btig7-3qisSnMjI_CleR-137" value="" style="group" parent="1" vertex="1" connectable="0">
          <mxGeometry x="210" y="240" width="130" height="22" as="geometry" />
        </mxCell>
        <mxCell id="btig7-3qisSnMjI_CleR-136" style="edgeStyle=orthogonalEdgeStyle;rounded=0;orthogonalLoop=1;jettySize=auto;html=1;exitX=0;exitY=1;exitDx=0;exitDy=-5.321001406069172;exitPerimeter=0;entryX=0.5;entryY=1;entryDx=0;entryDy=0;endArrow=none;endFill=0;" parent="btig7-3qisSnMjI_CleR-137" source="btig7-3qisSnMjI_CleR-113" target="btig7-3qisSnMjI_CleR-123" edge="1">
          <mxGeometry relative="1" as="geometry" />
        </mxCell>
        <mxCell id="btig7-3qisSnMjI_CleR-113" value="" style="shape=cylinder3;whiteSpace=wrap;html=1;boundedLbl=1;backgroundOutline=1;size=5.321001406069172;direction=north;" parent="btig7-3qisSnMjI_CleR-137" vertex="1">
          <mxGeometry x="40" width="50" height="20" as="geometry" />
        </mxCell>
        <mxCell id="btig7-3qisSnMjI_CleR-114" value="" style="verticalLabelPosition=bottom;shadow=0;dashed=0;align=center;html=1;verticalAlign=top;strokeWidth=1;shape=ellipse;" parent="btig7-3qisSnMjI_CleR-137" vertex="1">
          <mxGeometry width="20" height="20" as="geometry" />
        </mxCell>
        <mxCell id="btig7-3qisSnMjI_CleR-115" value="" style="verticalLabelPosition=bottom;shadow=0;dashed=0;align=center;html=1;verticalAlign=top;strokeWidth=1;shape=ellipse;" parent="btig7-3qisSnMjI_CleR-137" vertex="1">
          <mxGeometry x="6.5" y="6.5" width="7" height="7" as="geometry" />
        </mxCell>
        <mxCell id="btig7-3qisSnMjI_CleR-118" value="" style="endArrow=none;html=1;rounded=0;curved=0;endFill=0;sourcePerimeterSpacing=0;strokeColor=default;" parent="btig7-3qisSnMjI_CleR-137" edge="1">
          <mxGeometry width="50" height="50" relative="1" as="geometry">
            <mxPoint x="10" y="10" as="sourcePoint" />
            <mxPoint x="50" y="10" as="targetPoint" />
          </mxGeometry>
        </mxCell>
        <mxCell id="btig7-3qisSnMjI_CleR-120" value="" style="endArrow=none;html=1;rounded=0;curved=0;endFill=0;dashed=1;" parent="btig7-3qisSnMjI_CleR-137" edge="1">
          <mxGeometry width="50" height="50" relative="1" as="geometry">
            <mxPoint x="50" y="9.940000000000055" as="sourcePoint" />
            <mxPoint x="90" y="9.940000000000055" as="targetPoint" />
          </mxGeometry>
        </mxCell>
        <mxCell id="btig7-3qisSnMjI_CleR-123" value="" style="verticalLabelPosition=bottom;shadow=0;dashed=0;align=center;html=1;verticalAlign=top;strokeWidth=1;shape=ellipse;" parent="btig7-3qisSnMjI_CleR-137" vertex="1">
          <mxGeometry x="110" width="20" height="20" as="geometry" />
        </mxCell>
        <mxCell id="btig7-3qisSnMjI_CleR-124" value="" style="verticalLabelPosition=bottom;shadow=0;dashed=0;align=center;html=1;verticalAlign=top;strokeWidth=1;shape=ellipse;" parent="btig7-3qisSnMjI_CleR-137" vertex="1">
          <mxGeometry x="116.5" y="6.5" width="7" height="7" as="geometry" />
        </mxCell>
        <mxCell id="btig7-3qisSnMjI_CleR-122" value="" style="endArrow=none;html=1;rounded=0;curved=0;endFill=0;" parent="btig7-3qisSnMjI_CleR-137" edge="1">
          <mxGeometry width="50" height="50" relative="1" as="geometry">
            <mxPoint x="90" y="10.020000000000095" as="sourcePoint" />
            <mxPoint x="120" y="9.940000000000055" as="targetPoint" />
          </mxGeometry>
        </mxCell>
        <mxCell id="btig7-3qisSnMjI_CleR-135" style="edgeStyle=orthogonalEdgeStyle;rounded=0;orthogonalLoop=1;jettySize=auto;html=1;exitX=0.5;exitY=1;exitDx=0;exitDy=0;entryX=0;entryY=0;entryDx=0;entryDy=5.321001406069172;entryPerimeter=0;endArrow=none;endFill=0;" parent="btig7-3qisSnMjI_CleR-137" source="btig7-3qisSnMjI_CleR-114" target="btig7-3qisSnMjI_CleR-113" edge="1">
          <mxGeometry relative="1" as="geometry" />
        </mxCell>
        <mxCell id="laAMD-W9918imf4lk5Sr-27" value="" style="ellipse;whiteSpace=wrap;html=1;aspect=fixed;fillColor=#000000;" parent="btig7-3qisSnMjI_CleR-137" vertex="1">
          <mxGeometry x="9" y="19" width="2" height="2" as="geometry" />
        </mxCell>
        <mxCell id="btig7-3qisSnMjI_CleR-139" value="" style="group" parent="1" vertex="1" connectable="0">
          <mxGeometry x="380" y="240" width="130" height="22" as="geometry" />
        </mxCell>
        <mxCell id="btig7-3qisSnMjI_CleR-140" style="edgeStyle=orthogonalEdgeStyle;rounded=0;orthogonalLoop=1;jettySize=auto;html=1;exitX=0;exitY=1;exitDx=0;exitDy=-5.321001406069172;exitPerimeter=0;entryX=0.5;entryY=1;entryDx=0;entryDy=0;endArrow=none;endFill=0;" parent="btig7-3qisSnMjI_CleR-139" source="btig7-3qisSnMjI_CleR-141" target="btig7-3qisSnMjI_CleR-146" edge="1">
          <mxGeometry relative="1" as="geometry" />
        </mxCell>
        <mxCell id="btig7-3qisSnMjI_CleR-141" value="" style="shape=cylinder3;whiteSpace=wrap;html=1;boundedLbl=1;backgroundOutline=1;size=5.321001406069172;direction=north;" parent="btig7-3qisSnMjI_CleR-139" vertex="1">
          <mxGeometry x="40" width="50" height="20" as="geometry" />
        </mxCell>
        <mxCell id="btig7-3qisSnMjI_CleR-142" value="" style="verticalLabelPosition=bottom;shadow=0;dashed=0;align=center;html=1;verticalAlign=top;strokeWidth=1;shape=ellipse;" parent="btig7-3qisSnMjI_CleR-139" vertex="1">
          <mxGeometry width="20" height="20" as="geometry" />
        </mxCell>
        <mxCell id="btig7-3qisSnMjI_CleR-143" value="" style="verticalLabelPosition=bottom;shadow=0;dashed=0;align=center;html=1;verticalAlign=top;strokeWidth=1;shape=ellipse;" parent="btig7-3qisSnMjI_CleR-139" vertex="1">
          <mxGeometry x="6.5" y="6.5" width="7" height="7" as="geometry" />
        </mxCell>
        <mxCell id="btig7-3qisSnMjI_CleR-144" value="" style="endArrow=none;html=1;rounded=0;curved=0;endFill=0;sourcePerimeterSpacing=0;strokeColor=default;" parent="btig7-3qisSnMjI_CleR-139" edge="1">
          <mxGeometry width="50" height="50" relative="1" as="geometry">
            <mxPoint x="10" y="10" as="sourcePoint" />
            <mxPoint x="50" y="10" as="targetPoint" />
          </mxGeometry>
        </mxCell>
        <mxCell id="btig7-3qisSnMjI_CleR-145" value="" style="endArrow=none;html=1;rounded=0;curved=0;endFill=0;dashed=1;" parent="btig7-3qisSnMjI_CleR-139" edge="1">
          <mxGeometry width="50" height="50" relative="1" as="geometry">
            <mxPoint x="50" y="9.940000000000055" as="sourcePoint" />
            <mxPoint x="90" y="9.940000000000055" as="targetPoint" />
          </mxGeometry>
        </mxCell>
        <mxCell id="btig7-3qisSnMjI_CleR-146" value="" style="verticalLabelPosition=bottom;shadow=0;dashed=0;align=center;html=1;verticalAlign=top;strokeWidth=1;shape=ellipse;" parent="btig7-3qisSnMjI_CleR-139" vertex="1">
          <mxGeometry x="110" width="20" height="20" as="geometry" />
        </mxCell>
        <mxCell id="btig7-3qisSnMjI_CleR-147" value="" style="verticalLabelPosition=bottom;shadow=0;dashed=0;align=center;html=1;verticalAlign=top;strokeWidth=1;shape=ellipse;" parent="btig7-3qisSnMjI_CleR-139" vertex="1">
          <mxGeometry x="116.5" y="6.5" width="7" height="7" as="geometry" />
        </mxCell>
        <mxCell id="btig7-3qisSnMjI_CleR-148" value="" style="endArrow=none;html=1;rounded=0;curved=0;endFill=0;" parent="btig7-3qisSnMjI_CleR-139" edge="1">
          <mxGeometry width="50" height="50" relative="1" as="geometry">
            <mxPoint x="90" y="10.020000000000095" as="sourcePoint" />
            <mxPoint x="120" y="9.940000000000055" as="targetPoint" />
          </mxGeometry>
        </mxCell>
        <mxCell id="btig7-3qisSnMjI_CleR-149" style="edgeStyle=orthogonalEdgeStyle;rounded=0;orthogonalLoop=1;jettySize=auto;html=1;exitX=0.5;exitY=1;exitDx=0;exitDy=0;entryX=0;entryY=0;entryDx=0;entryDy=5.321001406069172;entryPerimeter=0;endArrow=none;endFill=0;" parent="btig7-3qisSnMjI_CleR-139" source="btig7-3qisSnMjI_CleR-142" target="btig7-3qisSnMjI_CleR-141" edge="1">
          <mxGeometry relative="1" as="geometry" />
        </mxCell>
        <mxCell id="laAMD-W9918imf4lk5Sr-26" value="" style="ellipse;whiteSpace=wrap;html=1;aspect=fixed;fillColor=#000000;" parent="btig7-3qisSnMjI_CleR-139" vertex="1">
          <mxGeometry x="119" y="19" width="2" height="2" as="geometry" />
        </mxCell>
        <mxCell id="btig7-3qisSnMjI_CleR-172" value="" style="group" parent="1" vertex="1" connectable="0">
          <mxGeometry x="210" y="200" width="20" height="20" as="geometry" />
        </mxCell>
        <mxCell id="btig7-3qisSnMjI_CleR-164" value="" style="verticalLabelPosition=bottom;shadow=0;dashed=0;align=center;html=1;verticalAlign=top;strokeWidth=1;shape=ellipse;" parent="btig7-3qisSnMjI_CleR-172" vertex="1">
          <mxGeometry width="20" height="20" as="geometry" />
        </mxCell>
        <mxCell id="btig7-3qisSnMjI_CleR-165" value="" style="verticalLabelPosition=bottom;shadow=0;dashed=0;align=center;html=1;verticalAlign=top;strokeWidth=1;shape=ellipse;" parent="btig7-3qisSnMjI_CleR-172" vertex="1">
          <mxGeometry x="6.5" y="6.5" width="7" height="7" as="geometry" />
        </mxCell>
        <mxCell id="btig7-3qisSnMjI_CleR-173" value="" style="group" parent="1" vertex="1" connectable="0">
          <mxGeometry x="350" y="75" width="20" height="20" as="geometry" />
        </mxCell>
        <mxCell id="btig7-3qisSnMjI_CleR-168" value="" style="verticalLabelPosition=bottom;shadow=0;dashed=0;align=center;html=1;verticalAlign=top;strokeWidth=1;shape=ellipse;" parent="btig7-3qisSnMjI_CleR-173" vertex="1">
          <mxGeometry width="20" height="20" as="geometry" />
        </mxCell>
        <mxCell id="btig7-3qisSnMjI_CleR-169" value="" style="verticalLabelPosition=bottom;shadow=0;dashed=0;align=center;html=1;verticalAlign=top;strokeWidth=1;shape=ellipse;" parent="btig7-3qisSnMjI_CleR-173" vertex="1">
          <mxGeometry x="6.5" y="6.5" width="7" height="7" as="geometry" />
        </mxCell>
        <mxCell id="btig7-3qisSnMjI_CleR-176" value="" style="group" parent="1" vertex="1" connectable="0">
          <mxGeometry x="350" y="110" width="20" height="130" as="geometry" />
        </mxCell>
        <mxCell id="btig7-3qisSnMjI_CleR-175" value="" style="group" parent="btig7-3qisSnMjI_CleR-176" vertex="1" connectable="0">
          <mxGeometry width="20" height="20" as="geometry" />
        </mxCell>
        <mxCell id="btig7-3qisSnMjI_CleR-157" value="" style="verticalLabelPosition=bottom;shadow=0;dashed=0;align=center;html=1;verticalAlign=top;strokeWidth=1;shape=ellipse;rotation=-90;" parent="btig7-3qisSnMjI_CleR-175" vertex="1">
          <mxGeometry width="20" height="20" as="geometry" />
        </mxCell>
        <mxCell id="btig7-3qisSnMjI_CleR-158" value="" style="verticalLabelPosition=bottom;shadow=0;dashed=0;align=center;html=1;verticalAlign=top;strokeWidth=1;shape=ellipse;rotation=-90;" parent="btig7-3qisSnMjI_CleR-175" vertex="1">
          <mxGeometry x="6.5" y="6.5" width="7" height="7" as="geometry" />
        </mxCell>
        <mxCell id="btig7-3qisSnMjI_CleR-151" style="edgeStyle=orthogonalEdgeStyle;rounded=0;orthogonalLoop=1;jettySize=auto;html=1;exitX=0;exitY=1;exitDx=0;exitDy=-5.321001406069172;exitPerimeter=0;entryX=0.5;entryY=1;entryDx=0;entryDy=0;endArrow=none;endFill=0;" parent="btig7-3qisSnMjI_CleR-176" source="btig7-3qisSnMjI_CleR-152" target="btig7-3qisSnMjI_CleR-157" edge="1">
          <mxGeometry relative="1" as="geometry" />
        </mxCell>
        <mxCell id="btig7-3qisSnMjI_CleR-152" value="" style="shape=cylinder3;whiteSpace=wrap;html=1;boundedLbl=1;backgroundOutline=1;size=5.321001406069172;direction=north;rotation=-90;" parent="btig7-3qisSnMjI_CleR-176" vertex="1">
          <mxGeometry x="-15" y="55" width="50" height="20" as="geometry" />
        </mxCell>
        <mxCell id="btig7-3qisSnMjI_CleR-156" value="" style="endArrow=none;html=1;rounded=0;curved=0;endFill=0;dashed=1;" parent="btig7-3qisSnMjI_CleR-176" edge="1">
          <mxGeometry width="50" height="50" relative="1" as="geometry">
            <mxPoint x="10" y="80" as="sourcePoint" />
            <mxPoint x="10" y="40" as="targetPoint" />
          </mxGeometry>
        </mxCell>
        <mxCell id="btig7-3qisSnMjI_CleR-159" value="" style="endArrow=none;html=1;rounded=0;curved=0;endFill=0;" parent="btig7-3qisSnMjI_CleR-176" edge="1">
          <mxGeometry width="50" height="50" relative="1" as="geometry">
            <mxPoint x="10" y="40" as="sourcePoint" />
            <mxPoint x="10" y="10" as="targetPoint" />
          </mxGeometry>
        </mxCell>
        <mxCell id="btig7-3qisSnMjI_CleR-160" style="edgeStyle=orthogonalEdgeStyle;rounded=0;orthogonalLoop=1;jettySize=auto;html=1;exitX=0.5;exitY=1;exitDx=0;exitDy=0;entryX=0;entryY=0;entryDx=0;entryDy=5.321001406069172;entryPerimeter=0;endArrow=none;endFill=0;" parent="btig7-3qisSnMjI_CleR-176" source="btig7-3qisSnMjI_CleR-153" target="btig7-3qisSnMjI_CleR-152" edge="1">
          <mxGeometry relative="1" as="geometry" />
        </mxCell>
        <mxCell id="btig7-3qisSnMjI_CleR-174" value="" style="group" parent="btig7-3qisSnMjI_CleR-176" vertex="1" connectable="0">
          <mxGeometry y="110" width="20" height="20" as="geometry" />
        </mxCell>
        <mxCell id="btig7-3qisSnMjI_CleR-153" value="" style="verticalLabelPosition=bottom;shadow=0;dashed=0;align=center;html=1;verticalAlign=top;strokeWidth=1;shape=ellipse;rotation=-90;" parent="btig7-3qisSnMjI_CleR-174" vertex="1">
          <mxGeometry width="20" height="20" as="geometry" />
        </mxCell>
        <mxCell id="btig7-3qisSnMjI_CleR-154" value="" style="verticalLabelPosition=bottom;shadow=0;dashed=0;align=center;html=1;verticalAlign=top;strokeWidth=1;shape=ellipse;rotation=-90;" parent="btig7-3qisSnMjI_CleR-174" vertex="1">
          <mxGeometry x="6.5" y="6.5" width="7" height="7" as="geometry" />
        </mxCell>
        <mxCell id="btig7-3qisSnMjI_CleR-155" value="" style="endArrow=none;html=1;rounded=0;curved=0;endFill=0;sourcePerimeterSpacing=0;strokeColor=default;" parent="btig7-3qisSnMjI_CleR-176" edge="1">
          <mxGeometry width="50" height="50" relative="1" as="geometry">
            <mxPoint x="10" y="120" as="sourcePoint" />
            <mxPoint x="10" y="80" as="targetPoint" />
          </mxGeometry>
        </mxCell>
        <mxCell id="btig7-3qisSnMjI_CleR-177" value="" style="curved=1;endArrow=none;html=1;rounded=0;endFill=0;entryX=0.5;entryY=0.5;entryDx=0;entryDy=0;entryPerimeter=0;exitX=0.5;exitY=1;exitDx=0;exitDy=0;exitPerimeter=0;strokeColor=#3333FF;" parent="1" source="btig7-3qisSnMjI_CleR-194" target="btig7-3qisSnMjI_CleR-169" edge="1">
          <mxGeometry width="50" height="50" relative="1" as="geometry">
            <mxPoint x="270" y="130" as="sourcePoint" />
            <mxPoint x="370" y="150" as="targetPoint" />
            <Array as="points">
              <mxPoint x="320" y="160" />
              <mxPoint x="310" y="100" />
            </Array>
          </mxGeometry>
        </mxCell>
        <mxCell id="btig7-3qisSnMjI_CleR-179" value="&lt;i&gt;as short&lt;/i&gt;&lt;div&gt;&lt;i&gt;as possible&lt;/i&gt;&lt;/div&gt;" style="text;html=1;align=left;verticalAlign=middle;resizable=0;points=[];autosize=1;strokeColor=none;fillColor=none;rotation=90;" parent="1" vertex="1">
          <mxGeometry x="236.75" y="280" width="80" height="40" as="geometry" />
        </mxCell>
        <mxCell id="btig7-3qisSnMjI_CleR-183" value="&lt;i&gt;as short&lt;/i&gt;&lt;div style=&quot;&quot;&gt;&lt;i&gt;as possible&lt;/i&gt;&lt;/div&gt;" style="text;html=1;align=left;verticalAlign=middle;resizable=0;points=[];autosize=1;strokeColor=none;fillColor=none;rotation=90;" parent="1" vertex="1">
          <mxGeometry x="405" y="280" width="80" height="40" as="geometry" />
        </mxCell>
        <mxCell id="btig7-3qisSnMjI_CleR-186" value="DC&amp;nbsp;&lt;span style=&quot;background-color: initial;&quot;&gt;out Hi&lt;/span&gt;" style="text;html=1;align=right;verticalAlign=middle;resizable=0;points=[];autosize=1;strokeColor=none;fillColor=none;" parent="1" vertex="1">
          <mxGeometry x="505" y="200" width="80" height="30" as="geometry" />
        </mxCell>
        <mxCell id="btig7-3qisSnMjI_CleR-187" value="AC out" style="text;html=1;align=left;verticalAlign=middle;resizable=0;points=[];autosize=1;strokeColor=none;fillColor=none;" parent="1" vertex="1">
          <mxGeometry x="376" y="105" width="60" height="30" as="geometry" />
        </mxCell>
        <mxCell id="btig7-3qisSnMjI_CleR-191" value="V" style="ellipse;whiteSpace=wrap;html=1;aspect=fixed;" parent="1" vertex="1">
          <mxGeometry x="650" y="160" width="20" height="20" as="geometry" />
        </mxCell>
        <mxCell id="btig7-3qisSnMjI_CleR-192" value="" style="group" parent="1" vertex="1" connectable="0">
          <mxGeometry x="487.73" y="160" width="27.27" height="30" as="geometry" />
        </mxCell>
        <mxCell id="btig7-3qisSnMjI_CleR-9" value="" style="pointerEvents=1;verticalLabelPosition=bottom;shadow=0;dashed=0;align=center;html=1;verticalAlign=top;shape=mxgraph.electrical.resistors.resistor_1;" parent="btig7-3qisSnMjI_CleR-192" vertex="1">
          <mxGeometry y="24.545454545454543" width="27.27" height="5.454545454545454" as="geometry" />
        </mxCell>
        <mxCell id="btig7-3qisSnMjI_CleR-10" value="" style="pointerEvents=1;verticalLabelPosition=bottom;shadow=0;dashed=0;align=center;html=1;verticalAlign=top;shape=mxgraph.electrical.miscellaneous.thermopile" parent="btig7-3qisSnMjI_CleR-192" vertex="1">
          <mxGeometry x="2.727" width="21.816" height="22.363636363636363" as="geometry" />
        </mxCell>
        <mxCell id="btig7-3qisSnMjI_CleR-193" value="" style="verticalLabelPosition=bottom;shadow=0;dashed=0;align=center;html=1;verticalAlign=top;shape=mxgraph.electrical.abstract.dac;" parent="1" vertex="1">
          <mxGeometry x="140" y="284.74" width="16" height="10.51" as="geometry" />
        </mxCell>
        <mxCell id="btig7-3qisSnMjI_CleR-199" value="" style="curved=1;endArrow=none;html=1;rounded=0;exitX=0.5;exitY=0.5;exitDx=0;exitDy=0;exitPerimeter=0;endFill=0;entryX=1;entryY=0.5;entryDx=0;entryDy=0;strokeColor=#3333FF;" parent="1" target="btig7-3qisSnMjI_CleR-196" edge="1">
          <mxGeometry width="50" height="50" relative="1" as="geometry">
            <mxPoint x="220" y="210" as="sourcePoint" />
            <mxPoint x="330" y="120" as="targetPoint" />
            <Array as="points">
              <mxPoint x="210" y="160" />
            </Array>
          </mxGeometry>
        </mxCell>
        <mxCell id="btig7-3qisSnMjI_CleR-200" value="choke" style="text;html=1;align=center;verticalAlign=middle;resizable=0;points=[];autosize=1;strokeColor=none;fillColor=none;" parent="1" vertex="1">
          <mxGeometry x="230" y="120" width="60" height="30" as="geometry" />
        </mxCell>
        <mxCell id="2jNEZOl5D5SCYj3oSi-p-1" value="" style="endArrow=none;html=1;rounded=0;" parent="1" edge="1">
          <mxGeometry width="50" height="50" relative="1" as="geometry">
            <mxPoint x="330" y="240" as="sourcePoint" />
            <mxPoint x="350" y="240" as="targetPoint" />
          </mxGeometry>
        </mxCell>
        <mxCell id="2jNEZOl5D5SCYj3oSi-p-2" value="" style="endArrow=none;html=1;rounded=0;entryX=0.5;entryY=0;entryDx=0;entryDy=0;" parent="1" target="btig7-3qisSnMjI_CleR-153" edge="1">
          <mxGeometry width="50" height="50" relative="1" as="geometry">
            <mxPoint x="350" y="240" as="sourcePoint" />
            <mxPoint x="380" y="200" as="targetPoint" />
          </mxGeometry>
        </mxCell>
        <mxCell id="2jNEZOl5D5SCYj3oSi-p-3" value="" style="endArrow=none;html=1;rounded=0;exitX=0.5;exitY=1;exitDx=0;exitDy=0;entryX=0.5;entryY=1;entryDx=0;entryDy=0;" parent="1" source="btig7-3qisSnMjI_CleR-123" target="btig7-3qisSnMjI_CleR-142" edge="1">
          <mxGeometry width="50" height="50" relative="1" as="geometry">
            <mxPoint x="330" y="250" as="sourcePoint" />
            <mxPoint x="380" y="200" as="targetPoint" />
          </mxGeometry>
        </mxCell>
        <mxCell id="2jNEZOl5D5SCYj3oSi-p-4" value="" style="endArrow=none;html=1;rounded=0;exitX=0.5;exitY=0;exitDx=0;exitDy=0;curved=0;jumpStyle=none;" parent="1" source="btig7-3qisSnMjI_CleR-142" edge="1">
          <mxGeometry width="50" height="50" relative="1" as="geometry">
            <mxPoint x="330" y="250" as="sourcePoint" />
            <mxPoint x="370" y="240" as="targetPoint" />
          </mxGeometry>
        </mxCell>
        <mxCell id="2jNEZOl5D5SCYj3oSi-p-5" value="" style="endArrow=none;html=1;rounded=0;entryX=0.5;entryY=1;entryDx=0;entryDy=0;" parent="1" target="btig7-3qisSnMjI_CleR-153" edge="1">
          <mxGeometry width="50" height="50" relative="1" as="geometry">
            <mxPoint x="370" y="240" as="sourcePoint" />
            <mxPoint x="380" y="200" as="targetPoint" />
          </mxGeometry>
        </mxCell>
        <mxCell id="2jNEZOl5D5SCYj3oSi-p-6" value="" style="endArrow=none;html=1;rounded=0;exitX=0.824;exitY=0.997;exitDx=0;exitDy=0;entryX=0.5;entryY=1;entryDx=0;entryDy=0;exitPerimeter=0;" parent="1" source="laAMD-W9918imf4lk5Sr-1" target="btig7-3qisSnMjI_CleR-142" edge="1">
          <mxGeometry width="50" height="50" relative="1" as="geometry">
            <mxPoint x="330" y="300" as="sourcePoint" />
            <mxPoint x="380" y="250" as="targetPoint" />
          </mxGeometry>
        </mxCell>
        <mxCell id="2jNEZOl5D5SCYj3oSi-p-7" value="" style="endArrow=none;html=1;rounded=0;" parent="1" edge="1">
          <mxGeometry width="50" height="50" relative="1" as="geometry">
            <mxPoint x="330" y="250" as="sourcePoint" />
            <mxPoint x="390" y="250" as="targetPoint" />
          </mxGeometry>
        </mxCell>
        <mxCell id="2jNEZOl5D5SCYj3oSi-p-8" value="" style="endArrow=none;html=1;rounded=0;" parent="1" source="2jNEZOl5D5SCYj3oSi-p-9" edge="1">
          <mxGeometry width="50" height="50" relative="1" as="geometry">
            <mxPoint x="360" y="230" as="sourcePoint" />
            <mxPoint x="360" y="250" as="targetPoint" />
          </mxGeometry>
        </mxCell>
        <mxCell id="2jNEZOl5D5SCYj3oSi-p-13" value="" style="endArrow=none;html=1;rounded=0;" parent="1" target="2jNEZOl5D5SCYj3oSi-p-9" edge="1">
          <mxGeometry width="50" height="50" relative="1" as="geometry">
            <mxPoint x="360" y="230" as="sourcePoint" />
            <mxPoint x="360" y="250" as="targetPoint" />
          </mxGeometry>
        </mxCell>
        <mxCell id="2jNEZOl5D5SCYj3oSi-p-9" value="" style="ellipse;whiteSpace=wrap;html=1;aspect=fixed;fillColor=#000000;" parent="1" vertex="1">
          <mxGeometry x="359" y="249" width="2" height="2" as="geometry" />
        </mxCell>
        <mxCell id="2jNEZOl5D5SCYj3oSi-p-15" value="" style="endArrow=none;html=1;rounded=0;entryX=0.5;entryY=1;entryDx=0;entryDy=0;exitX=1;exitY=0.5;exitDx=0;exitDy=0;" parent="1" target="btig7-3qisSnMjI_CleR-16" edge="1" source="laAMD-W9918imf4lk5Sr-26">
          <mxGeometry width="50" height="50" relative="1" as="geometry">
            <mxPoint x="500" y="250" as="sourcePoint" />
            <mxPoint x="620.3440807711694" y="250" as="targetPoint" />
            <Array as="points">
              <mxPoint x="595" y="260" />
            </Array>
          </mxGeometry>
        </mxCell>
        <mxCell id="2jNEZOl5D5SCYj3oSi-p-14" value="" style="ellipse;whiteSpace=wrap;html=1;aspect=fixed;fillColor=#000000;" parent="1" vertex="1">
          <mxGeometry x="389" y="329" width="2" height="2" as="geometry" />
        </mxCell>
        <mxCell id="laAMD-W9918imf4lk5Sr-1" value="" style="ellipse;whiteSpace=wrap;html=1;aspect=fixed;fillColor=#000000;" parent="1" vertex="1">
          <mxGeometry x="389" y="259" width="2" height="2" as="geometry" />
        </mxCell>
        <mxCell id="laAMD-W9918imf4lk5Sr-6" value="" style="curved=1;endArrow=none;html=1;rounded=0;exitX=0.5;exitY=0;exitDx=0;exitDy=0;endFill=0;" parent="1" source="btig7-3qisSnMjI_CleR-2" target="laAMD-W9918imf4lk5Sr-15" edge="1">
          <mxGeometry width="50" height="50" relative="1" as="geometry">
            <mxPoint x="380" y="180" as="sourcePoint" />
            <mxPoint x="140" y="10" as="targetPoint" />
            <Array as="points">
              <mxPoint x="570" y="10" />
              <mxPoint x="280" y="10" />
            </Array>
          </mxGeometry>
        </mxCell>
        <mxCell id="laAMD-W9918imf4lk5Sr-7" value="" style="curved=1;endArrow=none;html=1;rounded=0;exitX=0.5;exitY=0;exitDx=0;exitDy=0;endFill=0;" parent="1" source="btig7-3qisSnMjI_CleR-3" target="laAMD-W9918imf4lk5Sr-15" edge="1">
          <mxGeometry width="50" height="50" relative="1" as="geometry">
            <mxPoint x="555" y="160" as="sourcePoint" />
            <mxPoint x="140" y="10" as="targetPoint" />
            <Array as="points">
              <mxPoint x="690" y="40" />
              <mxPoint x="440" y="-20" />
            </Array>
          </mxGeometry>
        </mxCell>
        <mxCell id="laAMD-W9918imf4lk5Sr-8" value="" style="curved=1;endArrow=none;html=1;rounded=0;exitX=0;exitY=0.25;exitDx=0;exitDy=0;endFill=0;" parent="1" source="btig7-3qisSnMjI_CleR-4" target="laAMD-W9918imf4lk5Sr-15" edge="1">
          <mxGeometry width="50" height="50" relative="1" as="geometry">
            <mxPoint x="380" y="180" as="sourcePoint" />
            <mxPoint x="140" y="10" as="targetPoint" />
            <Array as="points">
              <mxPoint x="220" y="50" />
            </Array>
          </mxGeometry>
        </mxCell>
        <mxCell id="laAMD-W9918imf4lk5Sr-9" value="" style="curved=1;endArrow=none;html=1;rounded=0;exitX=0.25;exitY=0;exitDx=0;exitDy=0;endFill=0;" parent="1" source="btig7-3qisSnMjI_CleR-1" target="laAMD-W9918imf4lk5Sr-15" edge="1">
          <mxGeometry width="50" height="50" relative="1" as="geometry">
            <mxPoint x="380" y="180" as="sourcePoint" />
            <mxPoint x="140" y="10" as="targetPoint" />
            <Array as="points">
              <mxPoint x="140" y="120" />
              <mxPoint x="170" y="60" />
            </Array>
          </mxGeometry>
        </mxCell>
        <mxCell id="laAMD-W9918imf4lk5Sr-10" value="" style="curved=1;endArrow=none;html=1;rounded=0;exitX=0.695;exitY=0.53;exitDx=0;exitDy=0;exitPerimeter=0;dashed=1;endFill=0;entryX=1;entryY=0.5;entryDx=0;entryDy=0;strokeColor=#3333FF;" parent="1" source="btig7-3qisSnMjI_CleR-169" target="laAMD-W9918imf4lk5Sr-12" edge="1">
          <mxGeometry width="50" height="50" relative="1" as="geometry">
            <mxPoint x="360" y="90" as="sourcePoint" />
            <mxPoint x="265.00000000000006" y="80" as="targetPoint" />
            <Array as="points" />
          </mxGeometry>
        </mxCell>
        <mxCell id="laAMD-W9918imf4lk5Sr-15" value="" style="ellipse;whiteSpace=wrap;html=1;aspect=fixed;fillColor=#000000;" parent="1" vertex="1">
          <mxGeometry x="130" y="20" width="10" height="10" as="geometry" />
        </mxCell>
        <mxCell id="laAMD-W9918imf4lk5Sr-17" value="powerline" style="text;html=1;align=center;verticalAlign=middle;resizable=0;points=[];autosize=1;strokeColor=none;fillColor=none;" parent="1" vertex="1">
          <mxGeometry x="113" y="-10" width="70" height="30" as="geometry" />
        </mxCell>
      </root>
    </mxGraphModel>
  </diagram>
</mxfile>
